
<svg width="390" height="626" viewBox="0 0 390 626" fill="none" xmlns="http://www.w3.org/2000/svg">
    <g clip-path="url(#clip0_7000_2351)">
    <g clip-path="url(#clip1_7000_2351)">
    <path d="M485.124 -1344.83C705.867 -1305.9 707.244 -1120.19 682.515 -979.986L448.891 344.419C424.163 484.604 359.315 658.636 138.597 619.705C-82.1497 580.764 -83.5303 395.059 -58.7936 254.861L174.824 -1069.55C199.557 -1209.74 264.403 -1383.77 485.124 -1344.83Z" fill="#286987"/>
    <path d="M-45.8008 -320.346C2.57356 -368.112 48.7489 -335.86 79.0855 -305.135L365.663 -14.8945C395.994 15.8265 427.657 62.4118 379.29 110.171C330.915 157.935 284.738 125.683 254.402 94.958L-32.1742 -195.282C-62.5071 -226.003 -94.171 -272.588 -45.8008 -320.346Z" fill="#FF91F0"/>
    <path d="M221.137 -357.726C284.308 -382.847 314.251 -335.143 330.205 -295.02L480.916 83.9953C496.866 124.112 507.856 179.356 444.694 204.474C381.523 229.593 351.578 181.887 335.626 141.765L184.915 -237.249C168.964 -277.366 157.972 -332.611 221.137 -357.726Z" fill="#2e7798"/>
    </g>
    </g>
    <defs>
    <clipPath id="clip0_7000_2351">
    <rect width="390" height="626" fill="white"/>
    </clipPath>
    <clipPath id="clip1_7000_2351">
    <rect width="1945.72" height="2176.87" fill="white" transform="translate(-661 -1451)"/>
    </clipPath>
    </defs>
</svg>
