<svg width="1440" height="672" viewBox="0 0 1440 672" fill="none" xmlns="http://www.w3.org/2000/svg">
        <g clip-path="url(#clip0_5678_4934)">
        <path  d="M334.21 -461.436C422.244 -532.396 493.264 -471.302 538.335 -415.392L964.067 112.799C1009.13 168.706 1053.75 251.09 965.713 322.037C877.684 392.997 806.661 331.908 761.592 275.994L335.859 -252.195C290.797 -308.101 246.184 -390.482 334.21 -461.436Z" fill="#286987"/>
        <path d="M600.402 -728.392C739.387 -795.074 814.566 -691.829 856.915 -603.554L1256.97 230.334C1299.31 318.596 1332.79 441.854 1193.83 508.527C1054.84 575.205 979.658 471.958 937.313 383.683L537.257 -450.201C494.913 -538.465 461.431 -661.724 600.402 -728.392Z" fill="#F7F7F5"/>
        <path d="M1556.83 -1145.39C1760.23 -1116.41 1767.11 -946.315 1748.7 -817.122L1574.76 403.258C1556.35 532.432 1502.2 693.829 1298.82 664.844C1095.41 635.85 1088.53 465.764 1106.95 336.577L1280.89 -883.806C1299.3 -1012.99 1353.44 -1174.38 1556.83 -1145.39Z" fill="#286987"/>
        </g>
        <defs>
        <clipPath id="clip0_5678_4934">
        <rect width="1684.92" height="1729.06" fill="white" transform="matrix(0.931622 0.363428 0.363428 -0.931622 -104 357.797)"/>
        </clipPath>
        </defs>
        </svg>