<svg  version="1.1" id="Layer_1" xmlns="http://www.w3.org/2000/svg" xmlns:xlink="http://www.w3.org/1999/xlink" 
                        viewBox="0 0 448.125 448.125" xml:space="preserve">
                        <g transform="translate(0 -1020.36)" shape-rendering="auto" image-rendering="auto" color-rendering="auto" color-interpolation="sRGB">
                        <path style="fill:#5A3392;" d="M223.591,1052.429c-3.248,0.201-6.05,2.352-7.087,5.436l-11.693,33.898l-36.85,0.48
                            c-4.418,0.1-7.918,3.762-7.819,8.18c0.055,2.459,1.24,4.758,3.213,6.23l29.291,21.377l-10.866,34.016
                            c-1.314,4.219,1.041,8.703,5.259,10.018c2.34,0.729,4.885,0.346,6.906-1.041l30.118-20.801l30,20.787
                            c3.584,2.584,8.585,1.773,11.169-1.811c1.496-2.074,1.91-4.738,1.114-7.168l-10.866-34.014l29.292-21.377
                            c3.541-2.643,4.268-7.656,1.625-11.197c-1.473-1.973-3.772-3.158-6.233-3.213l-36.851-0.48l-11.693-33.896
                            c-1.148-3.414-4.436-5.639-8.031-5.438L223.591,1052.429z"/>
                        <path style="fill:#EE746C;" d="M224.063,1084.909l6.024,17.361c1.085,3.199,4.063,5.373,7.441,5.43l18.189,0.24l-14.409,10.512
                            c-2.741,2.045-3.88,5.604-2.835,8.859l5.551,17.244l-15.354-10.629c-2.763-1.945-6.45-1.945-9.213,0l-15.354,10.629l5.551-17.244
                            c1.045-3.256-0.094-6.814-2.834-8.859l-14.409-10.512l18.189-0.24c3.378-0.057,6.356-2.23,7.441-5.43L224.063,1084.909
                            L224.063,1084.909z"/>
                        <path style="fill:#5A3392;" d="M184.155,1196.394c-2.137,0-4.185,0.857-5.687,2.377l-31.5,31.375
                            c-1.903,1.539-2.997,3.865-2.969,6.313l0.061,55.969h-104c-2.094,0.033-4.091,0.887-5.562,2.377l-32,31.875
                            c-0.829,0.822-1.469,1.814-1.875,2.908c-0.021,0.059-0.041,0.117-0.06,0.176c-0.033,0.121-0.063,0.244-0.091,0.367
                            c-0.303,0.842-0.462,1.73-0.472,2.625l0.719,95.781c0.052,4.395,3.637,7.924,8.031,7.906h431.344
                            c4.394,0.018,7.979-3.512,8.031-7.906v-96.031c-0.007-2.066-0.813-4.051-2.25-5.535c-0.06-0.059-0.12-0.117-0.181-0.176
                            c-0.041,0-0.081,0-0.122,0l-0.242-0.24c-0.099-0.082-0.2-0.162-0.302-0.24l-31.5-31.408c-1.464-1.482-3.45-2.336-5.533-2.377
                            H304.027l-0.122-55.969c-0.006-0.16-0.017-0.32-0.032-0.48c-0.011-0.219-0.032-0.438-0.061-0.656c0.001-0.059,0.001-0.117,0-0.176
                            c-0.018-0.102-0.039-0.203-0.061-0.305c-0.036-0.162-0.076-0.322-0.122-0.48c-0.038-0.102-0.079-0.203-0.122-0.305
                            c-0.055-0.162-0.116-0.322-0.181-0.48c-0.038-0.102-0.079-0.203-0.122-0.305c-0.203-0.494-0.454-0.965-0.75-1.408
                            c-0.288-0.459-0.623-0.889-0.998-1.279l-32-31.875c-1.494-1.512-3.529-2.367-5.654-2.377H183.96L184.155,1196.394z"/>
                        <path style="fill:#FFFFFF;" d="M187.436,1212.458h73.25l16.031,15.969H171.405L187.436,1212.458L187.436,1212.458z"/>
                        <path style="fill:#29A3EC;" d="M160.061,1244.365l127.906,0.16l0.122,87.969c-0.017,4.418,3.552,8.014,7.97,8.031
                            c0.02,0,0.041,0,0.061,0h135.937v79.969H16.776l-0.593-79.719l135.938-0.24c4.406-0.035,7.954-3.625,7.937-8.031v-88.094
                            L160.061,1244.365z"/>
                        <g>
                            <path style="fill:#FFFFFF;" d="M43.343,1308.491h100.719l0.03,15.936l-116.875,0.24l16.125-16.156L43.343,1308.491z"/>
                            <path style="fill:#FFFFFF;" d="M304.124,1308.491H404.78l15.938,15.936H304.155L304.124,1308.491L304.124,1308.491z"/>
                        </g>
                        <path style="fill:#3CDEF6;" d="M166.246,1257.365l115.558,0.16l0.122,79.475c-0.015,3.992,3.209,7.24,7.201,7.256
                            c0.018,0,0.037,0,0.055,0h122.813v72.248H36.805l-0.538-72.021l122.814-0.24c3.981-0.031,7.186-3.275,7.171-7.256v-79.588
                            L166.246,1257.365z"/>
                        <g>
                            <path style="fill:#FFFFFF;" d="M216.032,1276.484v47.953h16.063v-47.953H216.032z"/>
                            <path style="fill:#FFFFFF;" d="M51.151,1356.447v47.951h15.945v-47.951H51.151z"/>
                            <path style="fill:#FFFFFF;" d="M83.159,1356.447v47.951h15.945v-47.951C99.104,1356.447,83.159,1356.447,83.159,1356.447z"/>
                            <path style="fill:#FFFFFF;" d="M317.148,1356.447v47.951h15.945v-47.951H317.148z"/>
                            <path style="fill:#FFFFFF;" d="M349.038,1356.447v47.951h16.063v-47.951H349.038z"/>
                            <path style="fill:#FFFFFF;" d="M381.047,1356.447v47.951h16.063v-47.951H381.047z"/>
                        </g>
                        <g>
                            <path style="fill:#EBFEFF;" d="M196.356,1214.402h55.411l12.127,12.08h-79.666L196.356,1214.402L196.356,1214.402z"/>
                            <path style="fill:#EBFEFF;" d="M51.664,1310.081h80.91l0.026,12.803l-93.889,0.176L51.664,1310.081L51.664,1310.081z"/>
                            <path style="fill:#EBFEFF;" d="M316.012,1310.115h80.13l12.687,12.688h-92.793L316.012,1310.115L316.012,1310.115z"/>
                        </g>
                        <path style="fill:#FB9761;" d="M224.063,1092.12l4.567,13.164c0.822,2.426,3.08,4.076,5.642,4.119l13.792,0.176l-10.926,7.971
                            c-2.078,1.551-2.941,4.248-2.149,6.717l4.209,13.076l-11.642-8.061c-2.095-1.475-4.891-1.475-6.985,0l-11.642,8.061l4.209-13.076
                            c0.792-2.469-0.071-5.166-2.149-6.717l-10.926-7.971l13.792-0.176c2.562-0.043,4.82-1.693,5.642-4.119L224.063,1092.12
                            L224.063,1092.12z"/>
                        </g>
                    </svg>