<svg width="1658" height="578" viewBox="-80 0 1140 578" fill="none" xmlns="http://www.w3.org/2000/svg">
    <g clip-path="url(#clip0_5556_1308)">
        <path d="M-142.922 98.1055C-138.923 25.339 -75.6658 13.4479 -27.023 16.1262L202.762 28.7509L432.542 41.3799C481.189 44.0521 542.974 58.9712 538.765 135.566C534.556 212.161 471.509 220.22 422.861 217.547L193.081 204.918L-36.7046 192.291C-85.3462 189.616 -146.923 170.869 -142.922 98.1055Z" fill="#3285ac"/>
        <path d="M-334.404 388.343C-353.602 212.492 -206.817 158.99 -89.2529 146.15L466.039 85.4867L1021.33 24.822C1138.89 11.9795 1292.76 23.2669 1312.97 208.372C1333.18 393.478 1185.38 437.722 1067.82 450.565L512.524 511.227L-42.7691 571.889C-160.326 584.731 -315.204 564.189 -334.404 388.343Z" fill="#286987"/>
    </g>
    <defs>
        <clipPath id="clip0_5556_1308">
            <rect width="1773.01" height="1408.99" fill="white" transform="translate(-396 -407.197)"/>
        </clipPath>
    </defs>
</svg>